<svg width="18" height="18" viewBox="0 0 18 18" fill="none" xmlns="http://www.w3.org/2000/svg">
<path d="M14 6.5V9V6.5ZM14 9V11.5V9ZM14 9H16.5H14ZM14 9H11.5H14ZM9.83333 4.83333C9.83333 5.71739 9.48214 6.56523 8.85702 7.19036C8.2319 7.81548 7.38405 8.16667 6.5 8.16667C5.61594 8.16667 4.7681 7.81548 4.14298 7.19036C3.51786 6.56523 3.16667 5.71739 3.16667 4.83333C3.16667 3.94928 3.51786 3.10143 4.14298 2.47631C4.7681 1.85119 5.61594 1.5 6.5 1.5C7.38405 1.5 8.2319 1.85119 8.85702 2.47631C9.48214 3.10143 9.83333 3.94928 9.83333 4.83333V4.83333ZM1.5 15.6667C1.5 14.3406 2.02678 13.0688 2.96447 12.1311C3.90215 11.1935 5.17392 10.6667 6.5 10.6667C7.82608 10.6667 9.09785 11.1935 10.0355 12.1311C10.9732 13.0688 11.5 14.3406 11.5 15.6667V16.5H1.5V15.6667Z" stroke="#2146AF" stroke-width="2" stroke-linecap="round" stroke-linejoin="round"/>
</svg>
