<svg width="32" height="32" viewBox="0 0 32 32" fill="none" xmlns="http://www.w3.org/2000/svg">
<path d="M16 22.666H23.5" stroke="#2146AF" stroke-width="2" stroke-linecap="round" stroke-linejoin="round"/>
<path d="M19.75 8.9162C20.0815 8.58468 20.5312 8.39844 21 8.39844C21.2321 8.39844 21.462 8.44416 21.6765 8.533C21.891 8.62184 22.0858 8.75205 22.25 8.9162C22.4142 9.08036 22.5444 9.27523 22.6332 9.48971C22.722 9.70418 22.7678 9.93406 22.7678 10.1662C22.7678 10.3984 22.722 10.6282 22.6332 10.8427C22.5444 11.0572 22.4142 11.2521 22.25 11.4162L11.8333 21.8329L8.5 22.6662L9.33333 19.3329L19.75 8.9162Z" stroke="#2146AF" stroke-width="2" stroke-linecap="round" stroke-linejoin="round"/>
<rect x="0.5" y="0.5" width="31" height="31" rx="3.5" stroke="#2146AF"/>
</svg>
