<svg width="380" height="24" viewBox="0 0 380 24" fill="none" xmlns="http://www.w3.org/2000/svg">
<line y1="12" x2="140" y2="12" stroke="#CAC4D0"/>
<path d="M191.578 10.9531V11.6719C191.578 12.526 191.471 13.2917 191.258 13.9688C191.044 14.6458 190.737 15.2214 190.336 15.6953C189.935 16.1693 189.453 16.5312 188.891 16.7812C188.333 17.0312 187.708 17.1562 187.016 17.1562C186.344 17.1562 185.727 17.0312 185.164 16.7812C184.607 16.5312 184.122 16.1693 183.711 15.6953C183.305 15.2214 182.99 14.6458 182.766 13.9688C182.542 13.2917 182.43 12.526 182.43 11.6719V10.9531C182.43 10.099 182.539 9.33594 182.758 8.66406C182.982 7.98698 183.297 7.41146 183.703 6.9375C184.109 6.45833 184.591 6.09375 185.148 5.84375C185.711 5.59375 186.328 5.46875 187 5.46875C187.693 5.46875 188.318 5.59375 188.875 5.84375C189.438 6.09375 189.919 6.45833 190.32 6.9375C190.727 7.41146 191.036 7.98698 191.25 8.66406C191.469 9.33594 191.578 10.099 191.578 10.9531ZM190.086 11.6719V10.9375C190.086 10.2604 190.016 9.66146 189.875 9.14062C189.74 8.61979 189.539 8.18229 189.273 7.82812C189.008 7.47396 188.682 7.20573 188.297 7.02344C187.917 6.84115 187.484 6.75 187 6.75C186.531 6.75 186.107 6.84115 185.727 7.02344C185.352 7.20573 185.029 7.47396 184.758 7.82812C184.492 8.18229 184.286 8.61979 184.141 9.14062C183.995 9.66146 183.922 10.2604 183.922 10.9375V11.6719C183.922 12.3542 183.995 12.9583 184.141 13.4844C184.286 14.0052 184.495 14.4453 184.766 14.8047C185.042 15.1589 185.367 15.4271 185.742 15.6094C186.122 15.7917 186.547 15.8828 187.016 15.8828C187.505 15.8828 187.94 15.7917 188.32 15.6094C188.701 15.4271 189.021 15.1589 189.281 14.8047C189.547 14.4453 189.747 14.0052 189.883 13.4844C190.018 12.9583 190.086 12.3542 190.086 11.6719ZM195.562 9.875V17H194.117V8.54688H195.523L195.562 9.875ZM198.203 8.5L198.195 9.84375C198.076 9.81771 197.961 9.80208 197.852 9.79688C197.747 9.78646 197.628 9.78125 197.492 9.78125C197.159 9.78125 196.865 9.83333 196.609 9.9375C196.354 10.0417 196.138 10.1875 195.961 10.375C195.784 10.5625 195.643 10.7865 195.539 11.0469C195.44 11.3021 195.375 11.5833 195.344 11.8906L194.938 12.125C194.938 11.6146 194.987 11.1354 195.086 10.6875C195.19 10.2396 195.349 9.84375 195.562 9.5C195.776 9.15104 196.047 8.88021 196.375 8.6875C196.708 8.48958 197.104 8.39062 197.562 8.39062C197.667 8.39062 197.786 8.40365 197.922 8.42969C198.057 8.45052 198.151 8.47396 198.203 8.5Z" fill="#3D3D4E"/>
<line x1="240" y1="12" x2="380" y2="12" stroke="#CAC4D0"/>
</svg>
