<svg width="33" height="32" viewBox="0 0 33 32" fill="none" xmlns="http://www.w3.org/2000/svg">
<path d="M15.083 15.1667V20.1667M18.4163 15.1667V20.1667M10.083 11.8333H23.4163M22.583 11.8333L21.8605 21.9517C21.8306 22.3722 21.6424 22.7657 21.3339 23.053C21.0255 23.3403 20.6196 23.5 20.198 23.5H13.3013C12.8798 23.5 12.4739 23.3403 12.1654 23.053C11.8569 22.7657 11.6688 22.3722 11.6388 21.9517L10.9163 11.8333H22.583ZM19.2497 11.8333V9.33333C19.2497 9.11232 19.1619 8.90036 19.0056 8.74408C18.8493 8.5878 18.6374 8.5 18.4163 8.5H15.083C14.862 8.5 14.65 8.5878 14.4938 8.74408C14.3375 8.90036 14.2497 9.11232 14.2497 9.33333V11.8333H19.2497Z" stroke="#2146AF" stroke-width="1.5" stroke-linecap="round" stroke-linejoin="round"/>
<rect x="1.25" y="0.5" width="31" height="31" rx="3.5" stroke="#2146AF"/>
</svg>
